{
  "accessors": [
    {
      "bufferView": 2,
      "componentType": 5126,
      "count": 1280,
      "max": [
        0.052190035581588745,
        -0.010892409831285477,
        0.041829004883766174
      ],
      "min": [
        -0.05230031535029411,
        -0.02040833793580532,
        0.0015253759920597076
      ],
      "type": "VEC3"
    },
    {
      "bufferView": 2,
      "byteOffset": 15360,
      "componentType": 5126,
      "count": 1280,
      "max": [
        0.9922316074371338,
        0.985227644443512,
        0.9871824383735657
      ],
      "min": [
        -0.9922317862510681,
        -0.985227644443512,
        -0.9871823191642761
      ],
      "type": "VEC3"
    },
    {
      "bufferView": 1,
      "componentType": 5126,
      "count": 1280,
      "max": [
        0.98987877368927,
        0.9836477637290955
      ],
      "min": [
        0.010121287778019905,
        0.018510431051254272
      ],
      "type": "VEC2"
    },
    {
      "bufferView": 0,
      "componentType": 5125,
      "count": 1920,
      "type": "SCALAR"
    },
    {
      "bufferView": 2,
      "byteOffset": 30720,
      "componentType": 5126,
      "count": 32149,
      "max": [
        0.06391561776399612,
        -0.00987847801297903,
        0.043451759964227676
      ],
      "min": [
        -0.06330832839012146,
        -0.021377062425017357,
        1.0339954314986244e-05
      ],
      "type": "VEC3"
    },
    {
      "bufferView": 2,
      "byteOffset": 416508,
      "componentType": 5126,
      "count": 32149,
      "max": [
        0.9999995231628418,
        0.9999979734420776,
        0.9998875856399536
      ],
      "min": [
        -0.999993085861206,
        -0.9999991059303284,
        -0.9999871850013733
      ],
      "type": "VEC3"
    },
    {
      "bufferView": 1,
      "byteOffset": 10240,
      "componentType": 5126,
      "count": 32149,
      "max": [
        0.6654912233352661,
        0.9917276501655579
      ],
      "min": [
        0.010199695825576782,
        0.008272320032119751
      ],
      "type": "VEC2"
    },
    {
      "bufferView": 0,
      "byteOffset": 7680,
      "componentType": 5125,
      "count": 187008,
      "type": "SCALAR"
    },
    {
      "bufferView": 2,
      "byteOffset": 802296,
      "componentType": 5126,
      "count": 8680,
      "max": [
        -0.05209750309586525,
        0.10755737870931625,
        0.027148256078362465
      ],
      "min": [
        -0.06327621638774872,
        -0.01861252263188362,
        0.00029654509853571653
      ],
      "type": "VEC3"
    },
    {
      "bufferView": 2,
      "byteOffset": 906456,
      "componentType": 5126,
      "count": 8680,
      "max": [
        1.0,
        0.9996063113212585,
        0.9999970197677612
      ],
      "min": [
        -1.0,
        -0.9999992847442627,
        -1.0
      ],
      "type": "VEC3"
    },
    {
      "bufferView": 1,
      "byteOffset": 267432,
      "componentType": 5126,
      "count": 8680,
      "max": [
        0.8301268815994263,
        0.990140438079834
      ],
      "min": [
        0.677236020565033,
        0.009859652258455753
      ],
      "type": "VEC2"
    },
    {
      "bufferView": 0,
      "byteOffset": 755712,
      "componentType": 5125,
      "count": 43392,
      "type": "SCALAR"
    },
    {
      "bufferView": 2,
      "byteOffset": 1010616,
      "componentType": 5126,
      "count": 8751,
      "max": [
        0.0633029043674469,
        0.1058172732591629,
        0.027148259803652763
      ],
      "min": [
        0.05255695432424545,
        -0.01861252449452877,
        0.00029657495906576514
      ],
      "type": "VEC3"
    },
    {
      "bufferView": 2,
      "byteOffset": 1115628,
      "componentType": 5126,
      "count": 8751,
      "max": [
        1.0,
        0.9985156655311584,
        0.9999970197677612
      ],
      "min": [
        -1.0,
        -0.9999992251396179,
        -1.0
      ],
      "type": "VEC3"
    },
    {
      "bufferView": 1,
      "byteOffset": 336872,
      "componentType": 5126,
      "count": 8751,
      "max": [
        0.9926574230194092,
        0.989540696144104
      ],
      "min": [
        0.8327069282531738,
        0.010459334589540958
      ],
      "type": "VEC2"
    },
    {
      "bufferView": 0,
      "byteOffset": 929280,
      "componentType": 5125,
      "count": 43392,
      "type": "SCALAR"
    }
  ],
  "asset": {
    "extras": {
      "author": "SIEC_Memorial (https://sketchfab.com/SIEC_Memorial)",
      "license": "CC-BY-4.0 (http://creativecommons.org/licenses/by/4.0/)",
      "source": "https://sketchfab.com/3d-models/eye-glasses-d46ec5e299be44f1a34a00c42a3fbb35",
      "title": "Очки ● Eye glasses"
    },
    "generator": "Sketchfab-13.79.0",
    "version": "2.0"
  },
  "bufferViews": [
    {
      "buffer": 0,
      "byteLength": 1102848,
      "name": "floatBufferViews",
      "target": 34963
    },
    {
      "buffer": 0,
      "byteLength": 406880,
      "byteOffset": 1102848,
      "byteStride": 8,
      "name": "floatBufferViews",
      "target": 34962
    },
    {
      "buffer": 0,
      "byteLength": 1220640,
      "byteOffset": 1509728,
      "byteStride": 12,
      "name": "floatBufferViews",
      "target": 34962
    }
  ],
  "buffers": [
    {
      "byteLength": 2730368,
      "uri": "scene.bin"
    }
  ],
  "extensionsUsed": [
    "KHR_materials_unlit"
  ],
  "images": [
    {
      "uri": "textures/Glasses_baseColor.png"
    },
    {
      "uri": "textures/Glasses_Frame__Temple_baseColor.png"
    }
  ],
  "materials": [
    {
      "alphaMode": "BLEND",
      "doubleSided": true,
      "extensions": {
        "KHR_materials_unlit": {}
      },
      "name": "Glasses",
      "pbrMetallicRoughness": {
        "baseColorFactor": [
          1.0,
          1.0,
          1.0,
          0.4860937566666464
        ],
        "baseColorTexture": {
          "index": 0
        },
        "metallicFactor": 0.0
      }
    },
    {
      "doubleSided": true,
      "extensions": {
        "KHR_materials_unlit": {}
      },
      "name": "Glasses_Frame__Temple",
      "pbrMetallicRoughness": {
        "baseColorTexture": {
          "index": 1
        },
        "metallicFactor": 0.0
      }
    }
  ],
  "meshes": [
    {
      "name": "Lenses_Glasses_0",
      "primitives": [
        {
          "attributes": {
            "NORMAL": 1,
            "POSITION": 0,
            "TEXCOORD_0": 2
          },
          "indices": 3,
          "material": 0,
          "mode": 4
        }
      ]
    },
    {
      "name": "Glasses_Glasses Frame & Temple_0",
      "primitives": [
        {
          "attributes": {
            "NORMAL": 5,
            "POSITION": 4,
            "TEXCOORD_0": 6
          },
          "indices": 7,
          "material": 1,
          "mode": 4
        }
      ]
    },
    {
      "name": "Temple Right_Glasses Frame & Temple_0",
      "primitives": [
        {
          "attributes": {
            "NORMAL": 9,
            "POSITION": 8,
            "TEXCOORD_0": 10
          },
          "indices": 11,
          "material": 1,
          "mode": 4
        }
      ]
    },
    {
      "name": "Temple Left_Glasses Frame & Temple_0",
      "primitives": [
        {
          "attributes": {
            "NORMAL": 13,
            "POSITION": 12,
            "TEXCOORD_0": 14
          },
          "indices": 15,
          "material": 1,
          "mode": 4
        }
      ]
    }
  ],
  "nodes": [
    {
      "children": [
        1
      ],
      "matrix": [
        1.6666666269302368,
        0.0,
        0.0,
        0.0,
        0.0,
        3.70074332718459e-16,
        -1.6666666269302368,
        0.0,
        0.0,
        1.6666666269302368,
        3.70074332718459e-16,
        0.0,
        0.0,
        0.0,
        0.0,
        1.0
      ],
      "name": "Sketchfab_model"
    },
    {
      "children": [
        2
      ],
      "matrix": [
        0.009999999776482582,
        0.0,
        0.0,
        0.0,
        0.0,
        0.0,
        0.009999999776482582,
        0.0,
        0.0,
        -0.009999999776482582,
        0.0,
        0.0,
        0.0,
        0.0,
        0.0,
        1.0
      ],
      "name": "Eyeglasses.fbx"
    },
    {
      "children": [
        3
      ],
      "name": "RootNode"
    },
    {
      "children": [
        4,
        6,
        8,
        10
      ],
      "matrix": [
        100.0,
        0.0,
        0.0,
        0.0,
        0.0,
        -1.629206793918314e-05,
        -99.99999999999868,
        0.0,
        0.0,
        99.99999999999868,
        -1.629206793918314e-05,
        0.0,
        0.0,
        0.0,
        0.0,
        1.0
      ],
      "name": "Eyeglasses"
    },
    {
      "children": [
        5
      ],
      "matrix": [
        1.0,
        0.0,
        0.0,
        0.0,
        0.0,
        1.0,
        -2.646977960169688e-23,
        0.0,
        0.0,
        2.646977960169688e-23,
        1.0,
        0.0,
        0.0,
        0.0,
        0.0,
        1.0
      ],
      "name": "Lenses"
    },
    {
      "mesh": 0,
      "name": "Lenses_Glasses_0"
    },
    {
      "children": [
        7
      ],
      "matrix": [
        1.0,
        0.0,
        0.0,
        0.0,
        0.0,
        1.0,
        -2.646977960169688e-23,
        0.0,
        0.0,
        2.646977960169688e-23,
        1.0,
        0.0,
        0.0,
        0.0,
        0.0,
        1.0
      ],
      "name": "Glasses"
    },
    {
      "mesh": 1,
      "name": "Glasses_Glasses Frame & Temple_0"
    },
    {
      "children": [
        9
      ],
      "matrix": [
        1.0,
        0.0,
        0.0,
        0.0,
        0.0,
        1.0,
        -2.646977960169688e-23,
        0.0,
        0.0,
        2.646977960169688e-23,
        1.0,
        0.0,
        0.0,
        0.0,
        0.0,
        1.0
      ],
      "name": "Temple Right"
    },
    {
      "mesh": 2,
      "name": "Temple Right_Glasses Frame & Temple_0"
    },
    {
      "children": [
        11
      ],
      "matrix": [
        1.0,
        0.0,
        0.0,
        0.0,
        0.0,
        1.0,
        -2.646977960169688e-23,
        0.0,
        0.0,
        2.646977960169688e-23,
        1.0,
        0.0,
        0.0,
        0.0,
        0.0,
        1.0
      ],
      "name": "Temple Left"
    },
    {
      "mesh": 3,
      "name": "Temple Left_Glasses Frame & Temple_0"
    }
  ],
  "samplers": [
    {
      "magFilter": 9729,
      "minFilter": 9987,
      "wrapS": 10497,
      "wrapT": 10497
    }
  ],
  "scene": 0,
  "scenes": [
    {
      "name": "Sketchfab_Scene",
      "nodes": [
        0
      ]
    }
  ],
  "textures": [
    {
      "sampler": 0,
      "source": 0
    },
    {
      "sampler": 0,
      "source": 1
    }
  ]
}
